<?xml version="1.0" encoding="UTF-8" standalone="no"?>
<svg xmlns="http://www.w3.org/2000/svg" width="256" height="256" viewBox="0 0 256 256" role="img" aria-label="Par2Guard icon">
  <defs>
    <linearGradient id="g1" x1="32" y1="20" x2="224" y2="236" gradientUnits="userSpaceOnUse">
      <stop offset="0" stop-color="#1f6feb"/>
      <stop offset="1" stop-color="#0b1b33"/>
    </linearGradient>
    <linearGradient id="g2" x1="64" y1="56" x2="192" y2="208" gradientUnits="userSpaceOnUse">
      <stop offset="0" stop-color="#ffffff" stop-opacity="0.20"/>
      <stop offset="1" stop-color="#ffffff" stop-opacity="0.05"/>
    </linearGradient>
    <filter id="shadow" x="-20%" y="-20%" width="140%" height="140%">
      <feDropShadow dx="0" dy="6" stdDeviation="8" flood-color="#000000" flood-opacity="0.35"/>
    </filter>
  </defs>

  <!-- Background -->
  <rect x="0" y="0" width="256" height="256" rx="56" fill="url(#g1)"/>

  <!-- Shield -->
  <path filter="url(#shadow)"
        d="M128 34
           C158 52 190 58 212 62
           V136
           C212 176 184 208 128 226
           C72 208 44 176 44 136
           V62
           C66 58 98 52 128 34 Z"
        fill="#0e2a4f"/>
  <path d="M128 44
           C155 60 184 66 202 70
           V135
           C202 170 176 198 128 214
           C80 198 54 170 54 135
           V70
           C72 66 101 60 128 44 Z"
        fill="url(#g2)"/>

  <!-- Inner badge -->
  <circle cx="128" cy="132" r="62" fill="#0b1220" opacity="0.90"/>
  <circle cx="128" cy="132" r="62" fill="#ffffff" opacity="0.06"/>

  <!-- Plus marks (parity vibe) -->
  <g opacity="0.85" fill="#9ddcff">
    <rect x="86" y="104" width="10" height="34" rx="5"/>
    <rect x="74" y="116" width="34" height="10" rx="5"/>

    <rect x="160" y="104" width="10" height="34" rx="5"/>
    <rect x="148" y="116" width="34" height="10" rx="5"/>
  </g>

  <!-- Text -->
  <g fill="#ffffff">
    <text x="128" y="148"
          font-family="DejaVu Sans, Ubuntu, Cantarell, Arial, sans-serif"
          font-size="44" font-weight="700"
          text-anchor="middle" dominant-baseline="middle"
          letter-spacing="1">PAR2</text>
    <text x="128" y="178"
          font-family="DejaVu Sans, Ubuntu, Cantarell, Arial, sans-serif"
          font-size="18" font-weight="600"
          text-anchor="middle" dominant-baseline="middle"
          opacity="0.85">GUARD</text>
  </g>

  <!-- Highlight -->
  <path d="M60 64
           C94 62 112 56 128 44
           C144 56 162 62 196 64
           C170 70 150 74 128 86
           C106 74 86 70 60 64 Z"
        fill="#ffffff" opacity="0.05"/>
</svg>
